<?xml version="1.0" encoding="utf-8"?>
<svg viewBox="0 0 500 500" xmlns="http://www.w3.org/2000/svg">
  <path d="M 158.412 213.428 L 158.412 214.528 C 158.412 215.23 158.264 215.983 157.967 216.788 C 157.679 217.601 157.205 218.351 156.544 219.036 C 155.883 219.722 155.025 220.296 153.971 220.759 C 152.918 221.221 151.624 221.452 150.091 221.452 L 124.02 221.452 C 123.532 221.452 123.076 221.38 122.655 221.237 C 122.234 221.085 121.869 220.882 121.563 220.627 C 121.257 220.372 121.012 220.069 120.83 219.718 C 120.657 219.368 120.571 218.985 120.571 218.57 L 120.571 192.822 C 120.571 192.423 120.657 192.048 120.83 191.698 C 121.012 191.347 121.257 191.04 121.563 190.777 C 121.869 190.514 122.234 190.31 122.655 190.167 C 123.076 190.015 123.532 189.94 124.02 189.94 L 147.001 189.94 C 147.845 189.94 148.75 190.067 149.717 190.322 C 150.684 190.57 151.586 190.968 152.419 191.518 C 153.263 192.068 153.961 192.782 154.517 193.659 C 155.064 194.535 155.337 195.612 155.337 196.888 L 155.337 197.964 C 155.337 198.977 155.135 200.065 154.733 201.229 C 154.331 202.393 153.68 203.493 152.778 204.53 C 153.554 204.928 154.283 205.406 154.963 205.965 C 155.643 206.523 156.238 207.164 156.745 207.89 C 157.252 208.624 157.655 209.453 157.952 210.378 C 158.258 211.302 158.412 212.319 158.412 213.428 Z M 151.542 214.492 L 151.542 213.428 C 151.542 212.686 151.403 212.016 151.126 211.418 C 150.838 210.829 150.44 210.322 149.933 209.9 C 149.425 209.469 148.807 209.143 148.079 208.919 C 147.36 208.688 146.551 208.572 145.65 208.572 L 130.186 208.572 L 130.186 202.82 L 142.56 202.82 C 143.461 202.82 144.27 202.708 144.989 202.485 C 145.718 202.254 146.336 201.926 146.843 201.504 C 147.35 201.074 147.744 200.563 148.021 199.973 C 148.29 199.384 148.424 198.714 148.424 197.964 L 148.424 196.888 C 148.424 196.066 147.949 195.656 147.001 195.656 L 127.427 195.656 L 127.427 215.736 L 150.091 215.736 C 150.216 215.736 150.364 215.727 150.536 215.712 C 150.709 215.703 150.867 215.66 151.011 215.58 C 151.154 215.508 151.279 215.385 151.384 215.209 C 151.489 215.034 151.542 214.795 151.542 214.492 Z M 176.15 215.736 L 176.15 221.452 L 173.089 221.452 C 172.101 221.452 171.048 221.312 169.927 221.034 C 168.816 220.755 167.771 220.296 166.794 219.658 C 165.827 219.021 165.026 218.196 164.394 217.183 C 163.761 216.163 163.445 214.911 163.445 213.428 L 163.445 187.655 L 170.315 187.655 L 170.315 213.428 C 170.315 214.137 170.578 214.699 171.105 215.114 C 171.633 215.529 172.294 215.736 173.089 215.736 L 176.15 215.736 Z M 211.348 197.701 L 211.348 218.57 C 211.348 218.985 211.256 219.368 211.075 219.718 C 210.902 220.069 210.662 220.372 210.356 220.627 C 210.049 220.882 209.689 221.085 209.278 221.237 C 208.856 221.38 208.41 221.452 207.942 221.452 L 192.406 221.452 C 191.562 221.452 190.661 221.372 189.704 221.213 C 188.745 221.054 187.801 220.794 186.873 220.436 C 185.933 220.077 185.027 219.622 184.156 219.072 C 183.284 218.522 182.522 217.852 181.871 217.063 C 181.219 216.282 180.697 215.381 180.305 214.36 C 179.911 213.332 179.715 212.172 179.715 210.88 L 179.715 197.701 L 186.571 197.701 L 186.571 210.88 C 186.571 211.63 186.729 212.3 187.045 212.889 C 187.351 213.487 187.768 213.998 188.295 214.42 C 188.821 214.842 189.439 215.17 190.149 215.401 C 190.868 215.624 191.638 215.736 192.463 215.736 L 204.478 215.736 L 204.478 197.701 L 211.348 197.701 Z M 248.496 205.57 C 248.496 206.36 248.328 207.212 247.993 208.13 C 247.658 209.047 247.116 209.896 246.369 210.677 C 245.622 211.458 244.644 212.112 243.437 212.638 C 242.23 213.164 240.764 213.428 239.039 213.428 L 226.651 213.428 L 226.651 208.01 L 239.039 208.01 C 239.978 208.01 240.702 207.771 241.21 207.292 C 241.717 206.814 241.971 206.224 241.971 205.522 C 241.971 204.773 241.684 204.187 241.109 203.764 C 240.544 203.342 239.854 203.131 239.039 203.131 L 226.651 203.131 C 225.721 203.131 225.003 203.366 224.495 203.836 C 223.988 204.315 223.733 204.904 223.733 205.606 L 223.733 213.583 C 223.733 214.348 224.017 214.943 224.581 215.365 C 225.156 215.787 225.865 215.999 226.708 215.999 L 239.039 215.999 L 239.039 221.452 L 226.651 221.452 C 225.702 221.452 224.678 221.312 223.575 221.034 C 222.483 220.755 221.463 220.304 220.514 219.682 C 219.576 219.06 218.79 218.247 218.157 217.243 C 217.525 216.238 217.209 215.018 217.209 213.583 L 217.209 205.57 C 217.209 204.773 217.377 203.92 217.712 203.011 C 218.047 202.094 218.588 201.241 219.336 200.452 C 220.083 199.671 221.06 199.017 222.268 198.49 C 223.465 197.964 224.926 197.701 226.651 197.701 L 239.039 197.701 C 239.988 197.701 241.013 197.841 242.115 198.12 C 243.217 198.398 244.238 198.849 245.176 199.471 C 246.125 200.093 246.915 200.906 247.548 201.911 C 248.18 202.915 248.496 204.135 248.496 205.57 Z M 291.67 213.428 L 291.67 214.528 C 291.67 215.23 291.522 215.983 291.225 216.788 C 290.937 217.601 290.463 218.351 289.802 219.036 C 289.141 219.722 288.284 220.296 287.23 220.759 C 286.176 221.221 284.883 221.452 283.349 221.452 L 257.279 221.452 C 256.79 221.452 256.336 221.38 255.913 221.237 C 255.492 221.085 255.129 220.882 254.821 220.627 C 254.515 220.372 254.271 220.069 254.088 219.718 C 253.916 219.368 253.829 218.985 253.829 218.57 L 253.829 192.822 C 253.829 192.423 253.916 192.048 254.088 191.698 C 254.271 191.347 254.515 191.04 254.821 190.777 C 255.129 190.514 255.492 190.31 255.913 190.167 C 256.336 190.015 256.79 189.94 257.279 189.94 L 280.259 189.94 C 281.103 189.94 282.008 190.067 282.976 190.322 C 283.944 190.57 284.844 190.968 285.677 191.518 C 286.521 192.068 287.221 192.782 287.776 193.659 C 288.322 194.535 288.595 195.612 288.595 196.888 L 288.595 197.964 C 288.595 198.977 288.394 200.065 287.991 201.229 C 287.589 202.393 286.938 203.493 286.037 204.53 C 286.813 204.928 287.541 205.406 288.221 205.965 C 288.902 206.523 289.496 207.164 290.003 207.89 C 290.512 208.624 290.914 209.453 291.211 210.378 C 291.518 211.302 291.67 212.319 291.67 213.428 Z M 284.801 214.492 L 284.801 213.428 C 284.801 212.686 284.663 212.016 284.384 211.418 C 284.097 210.829 283.7 210.322 283.191 209.9 C 282.684 209.469 282.066 209.143 281.337 208.919 C 280.619 208.688 279.809 208.572 278.908 208.572 L 263.444 208.572 L 263.444 202.82 L 275.818 202.82 C 276.719 202.82 277.529 202.708 278.247 202.485 C 278.976 202.254 279.594 201.926 280.101 201.504 C 280.61 201.074 281.002 200.563 281.28 199.973 C 281.548 199.384 281.682 198.714 281.682 197.964 L 281.682 196.888 C 281.682 196.066 281.208 195.656 280.259 195.656 L 260.685 195.656 L 260.685 215.736 L 283.349 215.736 C 283.474 215.736 283.622 215.727 283.795 215.712 C 283.967 215.703 284.125 215.66 284.269 215.58 C 284.413 215.508 284.538 215.385 284.643 215.209 C 284.749 215.034 284.801 214.795 284.801 214.492 Z M 327.919 205.702 L 327.919 213.428 C 327.919 214.408 327.771 215.293 327.474 216.083 C 327.167 216.863 326.769 217.55 326.281 218.14 C 325.783 218.737 325.209 219.243 324.556 219.658 C 323.905 220.081 323.225 220.424 322.515 220.687 C 321.807 220.95 321.084 221.141 320.345 221.261 C 319.618 221.389 318.928 221.452 318.276 221.452 L 305.901 221.452 C 304.944 221.452 303.904 221.312 302.783 221.034 C 301.653 220.755 300.608 220.296 299.65 219.658 C 298.693 219.021 297.892 218.196 297.25 217.183 C 296.609 216.163 296.287 214.911 296.287 213.428 L 296.287 205.702 C 296.287 204.234 296.609 202.991 297.25 201.971 C 297.892 200.958 298.693 200.132 299.65 199.495 C 300.608 198.858 301.653 198.398 302.783 198.12 C 303.904 197.841 304.944 197.701 305.901 197.701 L 318.276 197.701 C 320.039 197.701 321.538 197.964 322.774 198.49 C 324.001 199.017 324.993 199.678 325.749 200.476 C 326.506 201.273 327.057 202.142 327.402 203.083 C 327.747 204.024 327.919 204.897 327.919 205.702 Z M 321.049 213.428 L 321.049 205.738 C 321.049 204.948 320.815 204.362 320.345 203.98 C 319.867 203.605 319.177 203.418 318.276 203.418 L 305.945 203.418 C 305.035 203.418 304.341 203.609 303.861 203.992 C 303.382 204.383 303.142 204.952 303.142 205.702 L 303.142 213.428 C 303.142 214.177 303.382 214.751 303.861 215.15 C 304.341 215.541 305.035 215.736 305.945 215.736 L 318.276 215.736 C 319.215 215.736 319.91 215.541 320.359 215.15 C 320.819 214.751 321.049 214.177 321.049 213.428 Z M 355.95 197.701 L 365.406 197.701 L 353.075 208.907 L 366.973 221.452 L 357.516 221.452 L 348.376 213.164 L 339.235 221.452 L 329.764 221.452 L 343.619 208.859 L 331.345 197.701 L 340.744 197.701 L 348.318 204.578 L 355.95 197.701 Z" style="stroke-miterlimit: 23; stroke-width: 29px; white-space: pre; stroke-dashoffset: 1px; paint-order: fill; fill: rgba(0, 8, 168, 0.81);"/>
</svg>